<svg width="512" height="512" viewBox="0 0 512 512" fill="none" xmlns="http://www.w3.org/2000/svg">
<rect width="512" height="512" fill="black"/>
<path d="M157.802 395.384C150.898 407.341 135.608 411.438 123.65 404.534C111.693 397.631 107.597 382.341 114.5 370.384L119.425 361.854H177.16L157.802 395.384ZM352.462 291.854H402C415.807 291.854 427 303.047 427 316.854C427 330.661 415.807 341.854 402 341.854H381.329L397.801 370.384C404.704 382.341 400.608 397.631 388.65 404.534C376.693 411.438 361.404 407.341 354.5 395.384L323.595 341.854H323.58L294.713 291.854H294.727L267.787 245.192L296.654 195.192L352.462 291.854ZM260.5 117.504C267.404 105.547 282.693 101.45 294.65 108.354C306.608 115.257 310.705 130.547 303.802 142.504L285.018 175.037L285.107 175.192L256.24 225.192L256.15 225.037L217.575 291.854H271.619L300.486 341.854H110C96.1929 341.854 85 330.661 85 316.854C85.0002 303.047 96.193 291.854 110 291.854H159.84L227.283 175.037L208.5 142.504C201.597 130.547 205.693 115.257 217.65 108.354C229.608 101.45 244.898 105.547 251.802 117.504L256.15 125.036L260.5 117.504Z" fill="white"/>
</svg>
